# xmcd
#
# Track frame offsets:
#       150
#       10500
#       19790
#       29697
#       40677
#       53092
#       63500
#       77895
#       91927
#       104175
#       117517
#       130867
#       146375
#       159907
#       170495
#       184575
#       198067
#       215550
#       227175
#       243930
#
# Disc length: 3434 seconds
#
# Revision: 2
# Processed by: cddbd v1.5.2PL0 Copyright (c) Steve Scherf et al.
# Submitted via: FreeDbEdit v0.1
#
DISCID=0a0d6814
DTITLE=Barbara Mandrell - Greatest Hits [CD1]
DYEAR=1900
DGENRE=Country
TTITLE0=Treat Him Right
TTITLE1=Tonight My Baby's Coming Home
TTITLE2=After Closing Time (With David Houston)
TTITLE3=Show Me
TTITLE4=Midnight Oil
TTITLE5=This Time I Almost Made It
TTITLE6=I Love You, I Love You (With David Houston)
TTITLE7=Standing Room Only
TTITLE8=That's What Friends Are For
TTITLE9=Married but Not to Each Other
TTITLE10=Hold Me
TTITLE11=Woman to Woman
TTITLE12=Tonight
TTITLE13=Sleeping Single in a Double Bed
TTITLE14=(If Loving You Is Wrong) I Don't Wanna Be Right
TTITLE15=Fooled by a Feeling
TTITLE16=Years
TTITLE17=Crackers
TTITLE18=The Best of Strangers
TTITLE19=Love Is Fair
EXTD=
EXTT0=
EXTT1=
EXTT2=With David Houston
EXTT3=
EXTT4=
EXTT5=
EXTT6=With David Houston
EXTT7=
EXTT8=
EXTT9=
EXTT10=
EXTT11=
EXTT12=
EXTT13=
EXTT14=
EXTT15=
EXTT16=
EXTT17=
EXTT18=
EXTT19=
PLAYORDER=
